<svg version="1.1" class="clearos-svg clearfoundation" viewBox="0 0 400 400" preserveAspectRatio="xMinYMin" xmlns="http://www.w3.org/2000/svg" xmlns:xlink= "http://www.w3.org/1999/xlink">
<path style="fill:#AA0707;" d="M91.666,184.647"/>
<path style="fill:#AA0707;" d="M123.245,247.805"/>
<path style="fill:#AA0707;" d="M91.666,184.647"/>
<path style="fill:#AA0707;" d="M123.245,247.805"/>
<g>
	<path style="fill:#686868;" d="M164.464,225.065c-18.46-18.461-48.381-18.461-66.841,0l-75.455,75.424
		c-18.444,18.459-18.46,48.395,0,66.854l12.084,12.063c18.46,18.459,48.372,18.459,66.84,0l75.439-75.439
		c18.46-18.43,18.46-48.365,0-66.824L164.464,225.065z M82.578,341.962l-16.16,16.152c-6.161,6.154-16.129,6.154-22.29,0
		l-3.246-3.262c-6.161-6.152-6.161-16.121,0-22.273l16.16-16.152c6.161-6.152,16.137-6.152,22.29,0l3.246,3.262
		C88.724,325.812,88.724,335.794,82.578,341.962z"/>
	<path style="fill:#686868;" d="M287.859,229.034c-15.483-15.5-46.209-30.367-60.707-18.943L92.885,75.809l-5.061-19.982
		L39.497,33.582L26.976,46.119l18.429,49.317l21.96,5.907l134.167,134.194l-0.464,0.463c-13.482,13.477,4.207,48.766,17.63,62.18
		l85.868,85.869c12.276,12.291,32.243,12.291,44.551,0l24.599-24.611c12.308-12.293,12.308-32.244,0-44.553L287.859,229.034z"/>
	<path style="fill:#686868;" d="M363.208,173.022c24.613-24.604,33.228-59.103,25.982-90.737l-60.564,60.571
		c-18.46,18.461-48.381,18.461-66.854,0l-6.23-6.238c-18.443-18.459-18.443-48.381,0-66.84l60.595-60.563
		c-31.628-7.246-66.116,1.354-90.762,25.975c-38.058,38.073-38.058,99.775,0,137.834
		C263.447,211.097,325.149,211.097,363.208,173.022z"/>
</g>
</svg>
